<?xml version="1.0" standalone="no"?><!DOCTYPE svg PUBLIC "-//W3C//DTD SVG 1.1//EN" "http://www.w3.org/Graphics/SVG/1.1/DTD/svg11.dtd"><svg class="icon" height="512" viewBox="0 0 1024 1024" version="1.1" xmlns="http://www.w3.org/2000/svg"><path d="M432.86810446406 249.29549679620783c26.55637206418004-26.882211177209918 56.37118251253641-49.69135074726061 88.30398263599515-67.85720616908452a424.9832296963624 424.9832296963624 0 0 1 317.7802477274914-41.05646067686678 29.326039965342158 29.326039965342158 0 0 1 21.342851747946877 22.40183477202866 420.3399455481358 420.3399455481358 0 0 1-109.15804027398902 405.1066893974584h0.08144205805336592a424.25008578531055 424.25008578531055 0 0 1-252.28542828848583 120.96992667050573l-50.83179945633457 190.0490472336564a29.896276133348533 29.896276133348533 0 0 1-57.59309690660253 0.8146332229828848l-70.21956927222462-199.82440964006318-201.04632403412913-70.38250064220892a29.651879078372023 29.651879078372023 0 0 1-17.921458366847418-37.79802229269045 29.000200852312286 29.000200852312286 0 0 1 20.283845096926278-18.980465017868v-0.08144205805336592l190.0490472336564-50.75035739828124a422.86524002125975 422.86524002125975 0 0 1 121.13283441355134-252.61126740151565h0.08146568499216877z m325.76345957182554 214.56887168078737a317.21003518642374 317.21003518642374 0 0 1-57.83747033464023-23.216444368072747 332.11742859713263 332.11742859713263 0 0 1-140.11332305835808-140.60209354137234 325.19322340381893 325.19322340381893 0 0 1-23.460817796110444-58.652079930684316 371.463204396919 371.463204396919 0 0 0-62.562243794797986 50.01718986029047 362.5024752134953 362.5024752134953 0 0 0-104.92206092378427 233.79373375363207 30.79235141438478 30.79235141438478 0 0 1-22.320369087036482 28.51143036929808l-117.54855691634515 31.525495325436687 123.73961819860676 43.581755149991196c8.146119587379623 2.443828788132244 15.151790465685291 9.286591923392374 18.247297479877286 18.165855421823913l43.6632208349834 123.8210838835989 31.281121897398993-117.54855691634515a29.326039965342158 29.326039965342158 0 0 1 26.882211177209918-22.157461343990956 362.5839408984876 362.5839408984876 0 0 0 235.42295294572023-105.0849922937686c19.061930702860167-18.980465017868 35.598566932595894-40.16038539583051 49.52841937727625-62.15491536983714z m-41.46376547488885-55.39364154650797c19.306304130897882 10.182643577489825 39.59014922782415 17.92148199378621 59.792552266697065 23.29791005306492a362.5024752134953 362.5024752134953 0 0 0 29.651879078372023-237.86678173385238 363.31708480953955 363.31708480953955 0 0 0-237.21510350779272 29.326039965342158 287.3137590530753 287.3137590530753 0 0 0 76.08479144145633 132.53741601204604c21.66869086097676 21.831598604022282 46.10704962311559 39.67161491281634 71.68588072126724 52.70541570339923z m-20.03944804194978-148.6667474437597a30.710885729392643 30.710885729392643 0 0 1 43.50028946499902 0 30.955259157430312 30.955259157430312 0 0 1 0 43.82615220496769 31.36256395545236 31.36256395545236 0 0 1-43.581755149991196 0 31.606961010428872 31.606961010428872 0 0 1 0-43.744686519975524l0.08146568499216877-0.08146568499216877z" /></svg>