<?xml version="1.0" encoding="utf-8"?>
<!-- Generator: Adobe Illustrator 22.0.1, SVG Export Plug-In . SVG Version: 6.00 Build 0)  -->
<svg version="1.1" id="Layer_1" xmlns="http://www.w3.org/2000/svg" xmlns:xlink="http://www.w3.org/1999/xlink" x="0px" y="0px"
	 width="50px" height="314.8px" viewBox="0 0 50 314.8" style="enable-background:new 0 0 50 314.8;" xml:space="preserve">
<style type="text/css">
	.st0{fill:#09222E;}
</style>
<title>green-long-UPDATED</title>
<path class="st0" d="M25,50L25,50c13.8,0,25-11.2,25-25v-2h-0.1c-0.7,0-1.4,0-2-0.1c-11-1-19.8-9.8-20.8-20.8
	c-0.1-0.7-0.1-1.3-0.1-2c0,0,0-0.1,0-0.1h-4c0,0,0,0,0,0.1c0,0.7,0,1.3-0.1,2c-1,11-9.8,19.8-20.8,20.8c-0.7,0.1-1.4,0.1-2,0.1H0v2
	C0,38.8,11.2,50,25,50C25,50,25,50,25,50z M2,24.9c12.2-1,21.9-10.7,22.9-22.9h0.2c1,12.2,10.7,21.9,22.9,22.9V25
	c0,12.7-10.3,23-23,23S2,37.7,2,24.9C2,25,2,24.9,2,24.9z"/>
<path class="st0" d="M25,98.2L25,98.2c13.8,0,25-11.2,25-25l0,0v-2h-0.1c-0.7,0-1.4,0-2-0.1c-11-1-19.8-9.7-20.8-20.8
	c-0.1-0.7-0.1-1.3-0.1-2c0,0,0,0,0-0.1h-4c0,0,0,0,0,0.1c0,0.7,0,1.3-0.1,2c-1,11-9.8,19.8-20.8,20.8c-0.7,0.1-1.4,0.1-2,0.1H0v2
	C0,87,11.2,98.2,25,98.2C25,98.2,25,98.2,25,98.2z M2,73.2c12.2-1,21.9-10.7,22.9-22.9h0.2c1,12.2,10.7,21.9,22.9,22.9
	c0,0,0,0.1,0,0.1c0,12.7-10.3,23-23,23S2,85.9,2,73.2C2,73.2,2,73.2,2,73.2z"/>
<path class="st0" d="M25,146.6L25,146.6c13.8,0,25-11.2,25-25v-2h-0.1c-0.7,0-1.4,0-2-0.1c-11-1-19.8-9.8-20.8-20.8
	c-0.1-0.7-0.1-1.3-0.1-2c0,0,0-0.1,0-0.1h-4c0,0,0,0.1,0,0.1c0,0.7,0,1.3-0.1,2c-1,11-9.8,19.8-20.8,20.8c-0.7,0.1-1.4,0.1-2,0.1H0
	v2C0,135.4,11.2,146.6,25,146.6C25,146.6,25,146.6,25,146.6z M2,121.5c12.2-1,21.9-10.7,22.9-22.9h0.2c1,12.2,10.7,21.9,22.9,22.9
	c0,0,0,0.1,0,0.1c0,12.7-10.3,23-23,23S2,134.3,2,121.5C2,121.6,2,121.5,2,121.5z"/>
<path class="st0" d="M25,194.8L25,194.8c13.8,0,25-11.2,25-25l0,0v-2h-0.1c-0.7,0-1.4,0-2-0.1c-11-1-19.7-9.8-20.8-20.8
	c-0.1-0.7-0.1-1.4-0.1-2c0,0,0-0.1,0-0.1h-4c0,0,0,0.1,0,0.1c0,0.7,0,1.3-0.1,2c-1,11-9.8,19.7-20.8,20.8c-0.7,0.1-1.4,0.1-2,0.1H0
	v2C0,183.6,11.2,194.8,25,194.8C25,194.8,25,194.8,25,194.8z M2,169.7c12.2-1,21.9-10.7,22.9-22.9h0.2c1,12.2,10.7,21.9,22.9,22.9
	c0,0,0,0.1,0,0.1c0,12.7-10.3,23-23,23S2,182.5,2,169.7C2,169.8,2,169.8,2,169.7z"/>
<path class="st0" d="M25,243.3L25,243.3c13.8,0,25-11.2,25-25v-2h-0.1c-0.7,0-1.4,0-2-0.1c-11-1-19.8-9.7-20.8-20.8
	c-0.1-0.7-0.1-1.4-0.1-2c0,0,0-0.1,0-0.1h-4c0,0,0,0.1,0,0.1c0,0.7,0,1.3-0.1,2c-1,11-9.8,19.8-20.8,20.8c-0.7,0.1-1.4,0.1-2,0.1H0
	v2C0,232.1,11.2,243.3,25,243.3C25,243.3,25,243.3,25,243.3z M2,218.2c12.2-1,21.9-10.7,22.9-22.9h0.2c1,12.2,10.7,21.9,22.9,22.9
	c0,0,0,0.1,0,0.1c0,12.7-10.3,23-23,23S2,231,2,218.2C2,218.3,2,218.2,2,218.2z"/>
<path class="st0" d="M25,291.5L25,291.5c13.8,0,25-11.2,25-25v-2h-0.1c-0.7,0-1.4,0-2-0.1c-11-1-19.7-9.8-20.8-20.8
	c-0.1-0.7-0.1-1.4-0.1-2c0,0,0-0.1,0-0.1h-4c0,0,0,0.1,0,0.1c0,0.7,0,1.3-0.1,2c-1,11-9.8,19.7-20.8,20.8c-0.7,0.1-1.4,0.1-2,0.1H0
	v2C0,280.3,11.2,291.5,25,291.5C25,291.5,25,291.5,25,291.5z M2,266.4c12.2-1,21.9-10.7,22.9-22.9h0.2c1,12.2,10.7,21.9,22.9,22.9
	c0,0,0,0,0,0.1c0,12.7-10.3,23-23,23S2,279.2,2,266.4C2,266.5,2,266.5,2,266.4z"/>
</svg>
